PathFileType	4	(X/Y/Z)	C:/Users/opensim2020/Desktop/walking_exp_matlab/subject03_walking06_straight_02.trc	
DataRate	CameraRate	NumFrames	NumMarkers	Units	OrigDataRate	OrigDataStartFrame	OrigNumFrames	
100.00	100.00	4	44	mm	100.00	1459	238	
Frame#	Time	LFHD			RFHD			LBHD			RBHD			C7			T10			CLAV			STRN			RBAK			LSHO			LUPA			LELB			LFRM			LWRA			LWRB			LFIN			RSHO			RUPA			RELB			RFRM			RWRA			RWRB			RFIN			LASI			RASI			LPSI			RPSI			LTHI			LKNE			LTIB			LANK			LHEE			LTOE			RTHI			RKNE			RTIB			RANK			RHEE			RTOE			*39			*40			*41			*42			*43			
		X1	Y1	Z1	X2	Y2	Z2	X3	Y3	Z3	X4	Y4	Z4	X5	Y5	Z5	X6	Y6	Z6	X7	Y7	Z7	X8	Y8	Z8	X9	Y9	Z9	X10	Y10	Z10	X11	Y11	Z11	X12	Y12	Z12	X13	Y13	Z13	X14	Y14	Z14	X15	Y15	Z15	X16	Y16	Z16	X17	Y17	Z17	X18	Y18	Z18	X19	Y19	Z19	X20	Y20	Z20	X21	Y21	Z21	X22	Y22	Z22	X23	Y23	Z23	X24	Y24	Z24	X25	Y25	Z25	X26	Y26	Z26	X27	Y27	Z27	X28	Y28	Z28	X29	Y29	Z29	X30	Y30	Z30	X31	Y31	Z31	X32	Y32	Z32	X33	Y33	Z33	X34	Y34	Z34	X35	Y35	Z35	X36	Y36	Z36	X37	Y37	Z37	X38	Y38	Z38	X39	Y39	Z39	X40	Y40	Z40	X41	Y41	Z41	X42	Y42	Z42	X43	Y43	Z43	X44	Y44	Z44	

179	1.780	-949.82172	-650.85889	1585.62708	-1082.26843	-647.63812	1597.39636	-952.98761	-517.44836	1562.00891	-1083.14209	-519.45001	1572.78406	-1019.77563	-467.90717	1403.34753	-1015.91870	-423.39987	1087.75330	-1021.77783	-584.38501	1319.98560	-1022.63702	-621.96851	1154.84912	-1117.59460	-404.85184	1230.19275	-864.23584	-540.26843	1357.14380	-794.60785	-494.19714	1163.01318	-782.76648	-477.48004	1040.27820	-786.05896	-483.25110	909.91040	-819.49054	-483.43823	791.48889	-767.97162	-461.41525	798.61761	-779.00781	-465.15787	714.60474	-1179.97461	-538.26459	1349.83484	-1273.77722	-568.34637	1140.52576	-1298.83289	-609.84076	1038.58875	-1310.36243	-668.01556	915.49286	-1281.33643	-727.79376	833.91388	-1324.90259	-698.81268	821.00348	-1321.06970	-744.97394	762.84973	-916.94092	-603.47144	919.11176	-1155.27136	-579.77142	929.36774	-950.24908	-437.60147	935.31183	-1097.89734	-424.01746	956.40192	-860.82935	-619.79144	622.81390	-895.75726	-703.91626	465.87042	-886.97003	-714.19312	275.05194	-914.58331	-767.38312	69.74316	-953.82343	-736.79694	28.17077	-933.86572	-918.68475	57.97634	-1189.23340	-495.77057	638.24628	-1154.76794	-484.22653	457.81000	-1155.16919	-401.98697	282.11340	-1103.67273	-330.87091	76.69720	-1052.30005	-283.18219	49.90882	-1091.57703	-468.28439	30.56711	-995.86304	-576.90125	1662.56799												 
180	1.790	-948.58447	-660.45990	1584.13293	-1081.03357	-657.30627	1596.15674	-951.70538	-527.13550	1560.24402	-1082.11121	-529.17529	1571.34229	-1018.79749	-477.68915	1401.86719	-1014.41864	-433.61655	1086.16187	-1021.07587	-594.28845	1318.45813	-1022.27972	-631.97070	1153.31689	-1116.27893	-414.48846	1228.63623	-863.41144	-550.44989	1355.65320	-793.93988	-503.89395	1161.55835	-782.54645	-486.82870	1038.95703	-785.36383	-492.45377	908.57117	-819.07605	-492.18558	790.03809	-767.65668	-469.96210	797.19177	-778.84192	-473.30719	713.18262	-1179.12463	-547.83191	1348.32727	-1272.86230	-578.55676	1139.15845	-1297.94177	-620.61127	1037.48804	-1309.36670	-679.46686	914.65424	-1280.36218	-739.67462	833.47461	-1323.72412	-710.80298	820.27850	-1319.99695	-757.35254	762.49939	-917.07104	-614.70795	917.17981	-1155.14844	-588.49805	928.11615	-948.86133	-448.51657	933.82642	-1096.28381	-433.37766	955.19476	-859.65997	-628.53247	620.64606	-896.02295	-713.10553	464.01050	-886.55127	-728.43274	273.88824	-912.04022	-789.83765	70.95464	-951.99066	-761.67792	28.18182	-929.97833	-942.67902	63.48053	-1189.29968	-502.18750	637.62775	-1155.24329	-489.54016	457.14716	-1155.23413	-405.04407	282.36899	-1103.64722	-331.37677	77.77910	-1052.08398	-283.56961	51.50227	-1091.55017	-468.35373	30.43150	-992.84064	-588.94434	1661.16492												 
181	1.800	-947.36127	-670.10352	1582.66418	-1079.80359	-667.15607	1595.01831	-950.81982	-536.78796	1558.76929	-1081.12109	-538.98041	1570.09985	-1017.84930	-487.61646	1400.39893	-1012.68939	-443.94489	1084.65308	-1020.36139	-604.40259	1316.95801	-1021.88031	-642.06665	1151.84094	-1114.80762	-424.28464	1227.07300	-862.52112	-560.81256	1354.20288	-793.27795	-513.81989	1160.18811	-781.84503	-496.45990	1037.45984	-785.12122	-501.57257	906.95270	-818.32086	-501.52161	788.85553	-767.28168	-478.90103	795.77460	-778.64923	-481.78876	711.70721	-1178.23108	-557.33215	1346.87781	-1271.75256	-588.71405	1137.81104	-1296.77576	-631.18463	1036.31885	-1308.14368	-690.68433	913.79590	-1279.11353	-751.41272	833.01740	-1322.50916	-722.49188	819.62347	-1318.75513	-769.41760	762.15729	-917.26093	-626.02704	915.31158	-1155.30969	-597.36395	926.85693	-947.40753	-459.59509	932.54346	-1094.52795	-442.94879	954.01379	-858.85693	-638.21674	618.76575	-896.25671	-721.89606	461.68625	-886.09656	-742.05859	272.83768	-910.26410	-810.88831	71.46976	-950.23914	-785.30994	28.19776	-926.09192	-964.88074	69.25288	-1189.20813	-508.69800	636.97107	-1155.70972	-494.91199	456.48364	-1155.39038	-408.20627	282.63388	-1103.55591	-332.01776	78.87959	-1051.90308	-283.97495	53.22187	-1091.80249	-468.59274	30.34654	-992.41394	-597.11859	1659.24817												 
182	1.810	-945.99695	-679.82996	1581.39978	-1078.47595	-676.95001	1593.93628	-949.48792	-546.60156	1557.25330	-1079.86426	-548.82019	1568.84998	-1016.77649	-497.60004	1398.91968	-1010.90894	-454.50116	1083.17749	-1019.54150	-614.48395	1315.57068	-1021.45380	-652.34570	1150.45020	-1113.25244	-434.20444	1225.57056	-861.55078	-571.24237	1352.84583	-792.65082	-524.01398	1158.72815	-781.43286	-506.37646	1036.04102	-784.66028	-511.23532	905.50580	-817.82922	-510.98453	787.41614	-766.90344	-488.20840	794.36865	-778.43866	-490.59338	710.24194	-1177.28064	-566.87299	1345.52515	-1270.55493	-598.78894	1136.45300	-1295.43933	-641.63977	1035.08582	-1306.71106	-701.65137	912.84113	-1277.67224	-762.78174	832.41150	-1320.95361	-733.80725	818.75092	-1317.20325	-781.11383	761.60364	-917.46545	-637.54309	913.55182	-1155.27917	-606.26752	925.61115	-945.89197	-470.53442	931.44843	-1092.67603	-452.56003	952.92059	-858.35175	-648.63086	617.14838	-896.63147	-731.14398	459.54410	-885.49164	-755.27252	272.25439	-907.69995	-830.57086	72.81689	-947.54651	-806.45837	28.56612	-922.15045	-985.07056	74.74193	-1189.13794	-515.29480	636.33539	-1156.17444	-500.44531	455.81992	-1155.56653	-411.51929	283.00098	-1103.60205	-332.73630	80.08971	-1051.81555	-284.44580	55.18967	-1092.07422	-468.79510	30.30120	-991.43683	-606.17767	1658.43530												 
